<svg xmlns="http://www.w3.org/2000/svg" viewBox="0 0 23 21">
  <path d="M16 10.5v-2c0-.3-.3-.6-.7-.6h-3.7c-2 0-3.8 1.3-4.4 3.2a4.5 4.5 0 0 1 4.3-5.9h3.8c.4 0 .7-.2.7-.6v-2l4.2 4Zm-2.6-.7h.7v2c0 .7.5 1.3 1.2 1.3h.2c.3 0 .6 0 .8-.3L22 7.7c.3-.3.5-.7.5-1.1 0-.5-.2-.9-.5-1.1L16.4.4c-.3-.3-.6-.4-1-.4-.7 0-1.3.6-1.3 1.4v1.9h-2.6c-3.5 0-6.4 3-6.4 6.5 0 2.5 1.4 4.1 2.6 5a7.4 7.4 0 0 0 1.4.9h.4c.4 0 .7-.3.7-.7 0-.3-.2-.6-.4-.8l-.3-.2-.2-.2a2 2 0 0 1-.3-1.3c0-1.5 1-2.7 2.6-2.7h1.8ZM3 1.3a3 3 0 0 0-2.9 3V18A3 3 0 0 0 3 21h13.4a3 3 0 0 0 2.9-3v-2.6c0-.5-.5-1-1-1a1 1 0 0 0-1 1V18c0 .6-.4 1-1 1H3a1 1 0 0 1-1-1V4.3c0-.6.4-1 1-1h2.5a1 1 0 0 0 0-2Zm0 0"/>
</svg>
