<svg xmlns="http://www.w3.org/2000/svg" viewBox="0 0 24 24"><path fill="#000" d="M20.7 3.5A13.4 13.4 0 0 0 12 .7c-3.5 0-6.5 1-8.6 2.7A9.1 9.1 0 0 0 0 10.6a9.2 9.2 0 0 0 4.2 8.1L3.4 22v.3c0 .3.2.7.4 1a1.2 1.2 0 0 0 1.3 0l.6-.4L8 21.6l1-.6.5-.3A5 5 0 0 1 12 20c2.7 0 5.6-.6 8-2a8.5 8.5 0 0 0 2.9-3 9 9 0 0 0 1.1-4.5 9 9 0 0 0-3.3-7Zm.6 10.6c-.4.7-1 1.3-1.6 1.9-1 .7-2.2 1.3-3.5 1.6-1.4.4-2.8.6-4.2.6a6 6 0 0 0-3.4.9l-1 .5-2 1.3.4-2.2v-.9l-.3-.3c-.2 0-.3-.1-.3-.2a7.2 7.2 0 0 1-2.7-2.8 8.3 8.3 0 0 1-.2-7.2A7.8 7.8 0 0 1 6 3.8c1.6-.8 3.6-1.3 6-1.3 3.3 0 5.9.9 7.6 2.3a7.3 7.3 0 0 1 2.6 5.7c0 1.5-.3 2.7-.9 3.6Zm0 0"/></svg>