<svg xmlns="http://www.w3.org/2000/svg" fill="currentColor" class="bi bi-mastodon" viewBox="0 0 16 16"><path d="M11.2 12.2c2-.2 3.8-1.5 4-2.6.3-1.8.3-4.3.3-4.3 0-3.5-2.3-4.5-2.3-4.5C12.1.2 10.1 0 8 0 6 0 4 .2 2.8.8c0 0-2.3 1-2.3 4.5V8c.1 3.4.6 6.7 3.8 7.6C5.7 16 7 16 8 16c1.8-.1 2.9-.7 2.9-.7l-.1-1.3s-1.3.4-2.8.4c-1.4 0-3-.2-3.2-2a4 4 0 0 1 0-.4s1.4.3 3.2.4c1.1 0 2.1 0 3.2-.2zm1.6-2.5h-1.7v-4c0-1-.3-1.4-1-1.4-.9 0-1.3.6-1.3 1.6V8H7.2V6c0-1-.4-1.6-1.2-1.6-.8 0-1.1.5-1.1 1.3v4.1H3.2V5.5q0-1.3.7-2c.4-.5 1-.8 1.8-.8s1.5.3 1.9 1l.4.7.4-.7c.4-.7 1-1 2-1 .7 0 1.3.3 1.7.8q.7.7.7 2z"/></svg>