<svg xmlns="http://www.w3.org/2000/svg" width="72" height="72" viewBox="0 0 32 32"><path d="M28.778 1.004H3.191a2.185 2.185 0 0 0-2.186 2.159v25.672a2.186 2.186 0 0 0 2.186 2.161h25.612c1.2 0 2.175-.963 2.194-2.159V3.165a2.195 2.195 0 0 0-2.195-2.161h-.029.001zM9.9 26.562H5.446V12.251H9.9zM7.674 10.293a2.579 2.579 0 1 1 2.579-2.58v.004a2.577 2.577 0 0 1-2.577 2.577h-.003zm18.882 16.269h-4.441v-6.959c0-1.66-.034-3.795-2.314-3.795-2.316 0-2.669 1.806-2.669 3.673v7.082h-4.441V12.252h4.266v1.951h.058a4.686 4.686 0 0 1 4.22-2.312h-.009c4.5 0 5.332 2.962 5.332 6.817v7.855z"/></svg>