<!-- CC-BY https://www.svgrepo.com/svg/532720/square-rss --><svg xmlns="http://www.w3.org/2000/svg" fill="none" stroke="#000" viewBox="0 0 24 24"><path stroke="#f80" stroke-linecap="round" stroke-linejoin="round" stroke-width="2" d="M7 12a5 5 0 0 1 5 5M7 8a9 9 0 0 1 9 9m-8.5-.5h.01M7.2 20h9.6c1.12 0 1.68 0 2.1-.22a2 2 0 0 0 .88-.87c.22-.43.22-.99.22-2.11V7.2c0-1.12 0-1.68-.22-2.1a2 2 0 0 0-.87-.88C18.48 4 17.92 4 16.8 4H7.2c-1.12 0-1.68 0-2.1.22a2 2 0 0 0-.88.87C4 5.52 4 6.08 4 7.2v9.6c0 1.12 0 1.68.22 2.1.19.38.5.69.87.88.43.22.99.22 2.11.22Zm.8-3.5a.5.5 0 1 1-1 0 .5.5 0 0 1 1 0Z"/></svg>