<svg xmlns="http://www.w3.org/2000/svg" width="82" height="72" viewBox="0 0 81 72"><path d="M18.32 5.98c8.98 6.782 18.633 20.532 22.18 27.915 3.547-7.38 13.2-21.133 22.18-27.915 6.476-4.89 16.968-8.68 16.968 3.372 0 2.406-1.37 20.21-2.171 23.101-2.797 10.05-12.98 12.613-22.04 11.063 15.836 2.71 19.864 11.695 11.165 20.68-16.524 17.062-23.75-4.282-25.602-9.75-.34-1.005-.496-1.473-.5-1.071-.004-.402-.16.066-.5 1.07-1.852 5.47-9.078 26.813-25.602 9.75-8.699-8.984-4.671-17.968 11.165-20.68-9.06 1.551-19.243-1.011-22.04-11.062-.804-2.89-2.175-20.7-2.175-23.101C1.348-2.7 11.844 1.09 18.32 5.98Zm0 0" style="stroke:none;fill-rule:nonzero;fill:#000);fill-opacity:1"/></svg>