<svg xmlns="http://www.w3.org/2000/svg" fill="currentColor" class="bi bi-globe2" viewBox="0 0 16 16"><path d="M0 8a8 8 0 1 1 16 0A8 8 0 0 1 0 8m7.5-7c-.7.3-1.3.9-1.9 2l-.4.8c.7.2 1.5.3 2.3.3zM4.2 3.6l.5-1a7 7 0 0 1 .6-1A7 7 0 0 0 3.1 3l1.1.5zm-.7 4c0-1 .2-2 .4-3a9 9 0 0 1-1.5-.7A7 7 0 0 0 1 7.5zM5 4.8a12.3 12.3 0 0 0-.4 2.7h3V5.1c-1 0-1.8-.2-2.6-.3m3.6.3v2.4h3a12.3 12.3 0 0 0-.4-2.7c-.8.1-1.7.3-2.6.3zm-4 3.4c0 1 .2 2 .4 2.7a13.6 13.6 0 0 1 2.6-.3V8.5zm4 0v2.4c1 0 1.8.2 2.6.3.2-.8.4-1.7.4-2.7zm-3.3 3.7.4.9c.6 1 1.2 1.6 1.9 1.8v-3c-.8 0-1.6.1-2.3.3zm.1 2.3a7 7 0 0 1-.6-1 9 9 0 0 1-.5-1 8.4 8.4 0 0 0-1.1.4 7 7 0 0 0 2.2 1.6zm-1.4-3a13.4 13.4 0 0 1-.4-3H1a7 7 0 0 0 1.4 3.7 9 9 0 0 1 1.5-.7m6.8 3a7 7 0 0 0 2.2-1.5 8.4 8.4 0 0 0-1.1-.5 9 9 0 0 1-.5 1 7 7 0 0 1-.6 1m-2.2-2.6v3c.7-.2 1.3-.8 1.9-1.8l.4-.9a12.6 12.6 0 0 0-2.3-.3zm3.6-.4 1.5.7A7 7 0 0 0 15 8.5h-2.5a13.4 13.4 0 0 1-.4 3m2.9-4a7 7 0 0 0-1.4-3.7 9 9 0 0 1-1.5.7c.2 1 .4 2 .4 3zm-3.7-5 .5 1a8.4 8.4 0 0 0 1.1-.5 7 7 0 0 0-2.2-1.5l.6 1m-.5 1.3a8 8 0 0 0-.4-.9c-.6-1-1.2-1.6-1.9-1.8v3c.8 0 1.6-.1 2.3-.3z"/></svg>