<svg width="24" height="24" viewBox="0 0 24 24" fill="none" xmlns="http://www.w3.org/2000/svg">
<path d="M22.3937 18.001L21.6963 16.7934C17.3921 19.2783 11.8882 17.8037 9.40314 13.4997C6.91806 9.19584 8.39282 3.69245 12.6971 1.20757L11.9999 4.21223e-06C9.96093 -0.00170505 7.89423 0.516752 6.0015 1.60943C0.262471 4.92258 -1.70386 12.2604 1.60956 17.999C4.923 23.7375 12.2615 25.7037 18.0005 22.3905C19.8932 21.2979 21.3756 19.7675 22.3937 18.001Z" fill="#323232"/>
<path d="M18.0005 0.00195312H19.5005V1.50171C19.5005 3.15828 20.8435 4.5012 22.5002 4.5012H24.0001V6.00096H22.5002C20.8435 6.00096 19.5005 7.34388 19.5005 9.00045V10.5002H18.0005V9.00045C18.0005 7.34388 16.6576 6.00094 15.0008 6.00094H13.501V4.5012H15.0008C16.6576 4.5012 18.0005 3.15828 18.0005 1.50171V0.00195312Z" fill="#323232"/>
</svg>
