<svg width="80" height="80" viewBox="0 0 80 80" fill="none" xmlns="http://www.w3.org/2000/svg">
<path d="M40.0001 61.9001C52.0951 61.9001 61.9001 52.0951 61.9001 40.0001C61.9001 27.9051 52.0951 18.1001 40.0001 18.1001C27.9051 18.1001 18.1001 27.9051 18.1001 40.0001C18.1001 52.0951 27.9051 61.9001 40.0001 61.9001Z" fill="#cdcdcd"/>
<path d="M40.0001 12.3C41.0001 12.3 41.9001 11.5 41.9001 10.4V1.9C41.9001 0.9 41.1001 0 40.0001 0C38.9001 0 38.1001 0.8 38.1001 1.9V10.4C38.1001 11.4 39.0001 12.3 40.0001 12.3Z" fill="#cdcdcd"/>
<path d="M17.7002 20.3998C18.1002 20.7998 18.5002 20.9998 19.0002 20.9998C19.5002 20.9998 20.0002 20.7998 20.3002 20.3998C21.0002 19.6998 21.0002 18.4998 20.3002 17.6998L14.3002 11.6998C13.6002 10.9998 12.4002 10.9998 11.6002 11.6998C10.9002 12.3998 10.9002 13.5998 11.6002 14.3998L17.7002 20.3998Z" fill="#cdcdcd"/>
<path d="M12.3 40.0001C12.3 39.0001 11.5 38.1001 10.4 38.1001H1.9C0.9 38.1001 0 38.9001 0 40.0001C0 41.1001 0.8 41.9001 1.9 41.9001H10.4C11.4 41.9001 12.3 41.0001 12.3 40.0001Z" fill="#cdcdcd"/>
<path d="M17.6998 59.6002L11.6998 65.6002C10.9998 66.3002 10.9998 67.5002 11.6998 68.3002C12.0998 68.7002 12.4998 68.9002 12.9998 68.9002C13.4998 68.9002 13.9998 68.7002 14.2998 68.3002L20.2998 62.3002C20.9998 61.6002 20.9998 60.4002 20.2998 59.6002C19.5998 58.8002 18.4998 58.9002 17.6998 59.6002Z" fill="#cdcdcd"/>
<path d="M40.0001 67.7002C39.0001 67.7002 38.1001 68.5002 38.1001 69.6002V78.1002C38.1001 79.1002 38.9001 80.0002 40.0001 80.0002C41.1001 80.0002 41.9001 79.2002 41.9001 78.1002V69.6002C41.9001 68.6002 41.0001 67.7002 40.0001 67.7002Z" fill="#cdcdcd"/>
<path d="M62.3002 59.6002C61.6002 58.9002 60.4002 58.9002 59.6002 59.6002C58.8002 60.3002 58.9002 61.5002 59.6002 62.3002L65.6002 68.3002C66.0002 68.7002 66.4002 68.9002 66.9002 68.9002C67.4002 68.9002 67.9002 68.7002 68.2002 68.3002C68.9002 67.6002 68.9002 66.4002 68.2002 65.6002L62.3002 59.6002Z" fill="#cdcdcd"/>
<path d="M78.1002 38.1001H69.6002C68.6002 38.1001 67.7002 38.9001 67.7002 40.0001C67.7002 41.1001 68.5002 41.9001 69.6002 41.9001H78.1002C79.1002 41.9001 80.0002 41.1001 80.0002 40.0001C80.0002 38.9001 79.2002 38.1001 78.1002 38.1001Z" fill="#cdcdcd"/>
<path d="M60.9001 20.9002C61.4001 20.9002 61.9001 20.7002 62.2001 20.3002L68.2001 14.3002C68.9001 13.6002 68.9001 12.4002 68.2001 11.6002C67.5001 10.9002 66.3001 10.9002 65.5001 11.6002L59.5001 17.6002C58.8001 18.3002 58.8001 19.5002 59.5001 20.3002C60.0001 20.8002 60.5001 20.9002 60.9001 20.9002Z" fill="#cdcdcd"/>
</svg>
