<svg height="390" viewBox="0 0 1500 390" width="1500" xmlns="http://www.w3.org/2000/svg"><path d="m153.76001 387.77002c-87.410004 0-151.100006-57.54004-151.100006-142.76001 0-85.219971 63.690002-142.76001 151.100006-142.76001h41.289978c86.970001 0 150.660034 57.540039 150.660034 142.76001 0 85.21997-63.690033 142.76001-150.660034 142.76001zm46.559997-73.79004c39.970002 0 68.959992-28.109985 68.959992-68.95996 0-40.850037-28.98999-69.400025-68.959992-69.400025h-51.830017c-39.970001 0-69.399994 28.109985-69.399994 69.400025 0 41.289978 28.989991 68.95996 69.399994 68.95996z"/><path d="m860.209961 385.51001v-219.180054h73.350098v219.180054z"/><path d="m1053.660034 386.640015c-52.710083 0-79.940063-29.429993-79.940063-80.380005v-201.170044h72.920044v62.370056h87.849975v60.619995h-87.849975v72.479981c0 17.130004 8.349975 25.919982 25.910034 25.919982h59.73999v60.179993h-78.630005z"/><path d="m1232.550049 386.640015c-46.119995 0-68.960083-26.790039-68.960083-64.570008 0-37.780029 22.840088-65.010009 68.960083-65.010009h81.699951v42.609985h-65.01001c-10.97998 0-16.25 5.270019-16.25 15.369995 0 10.100037 5.27002 15.369995 15.369995 15.369995h87.410035v-63.25c0-24.599975-12.739991-37.339966-38.209961-37.339966h-122.110108v-62.369995h122.98999c72.480103 0 109.370118 37.779968 109.370118 104.539978v114.640015h-175.26001z"/><path d="m373.179993 384.369995v-114.640015c0-66.329956 37.780029-104.539978 109.369995-104.539978h61.48999v66.77002h-59.73999c-25.039978 0-37.779968 12.299988-37.779968 37.339966v115.080017h-73.350037z"/><path d="m823.699951 227.570007c-12.919922-40.320007-47.299927-62.200012-102.409973-62.200012h-62.309998v66.840027h58.910035c3.299987 0 6.519958.199951 9.619995.599976 19.369995 4.690002 30.049988 16.859985 30.049988 40.700012 0 31.190002-18.890015 45.23999-44.799988 45.23999h-36.900025c-25.039978 0-38.209961-13.179993-38.209961-37.77002v-203.369995h-73.360046v203.369995c0 66.76001 37.340027 104.54004 109.809998 104.54004h38.650024c68.080017 0 118.160034-41.29004 118.160034-114.200013 0-16.190002-2.420044-30.840027-7.22998-43.73999z"/><path d="m1428.790039 7.859985c-37.859985 0-68.550049 30.690003-68.550049 68.550049 0 37.859986 30.690064 68.549927 68.550049 68.549927s68.549927-30.689941 68.549927-68.549927c0-37.860046-30.689942-68.550049-68.549927-68.550049zm0 122.080017c-29.560059 0-53.530029-23.970031-53.530029-53.529968 0-29.560058 23.96997-53.530029 53.530029-53.530029 29.559937 0 53.529907 23.969971 53.529907 53.530029 0 29.559937-23.96997 53.529968-53.529907 53.529968z"/><path d="m1465.420044 77.359985c0 19.71106-15.979004 35.690003-35.690064 35.690003-19.711059 0-35.689941-15.978943-35.689941-35.690003 0-19.711059 15.978882-35.689941 35.689941-35.689941 19.71106 0 35.690064 15.978882 35.690064 35.689941z"/><path d="m1471.040039 21.01001c0 10.371887-8.408081 18.780029-18.780029 18.780029s-18.78003-8.408142-18.78003-18.780029c0-10.371948 8.408082-18.78003 18.78003-18.78003s18.780029 8.408082 18.780029 18.78003z"/><path d="m227.350006 75.869995h-106.490021l106.490021-41.919983z"/><path d="m897.23999 63.609985c-21.699951 0-39.300049 17.599976-39.300049 39.300049 0 21.699951 17.600098 39.299927 39.300049 39.299927s39.300049-17.599976 39.300049-39.299927c0-21.700073-17.600098-39.300049-39.300049-39.300049z"/></svg>