<?xml version="1.0" encoding="UTF-8"?><svg id="a" xmlns="http://www.w3.org/2000/svg" viewBox="0 0 966 318.8"><path d="m124.5,109.6h-44.4v-5c6.2-.1,16.2-.8,15.6-9.1,0,0,0-73.1,0-73.1h-1.1l-34.3,85.6h-3.5L24.2,20.6h-.9c.4,9.6-1.1,65.2,1.1,73.2.9,8,10.1,9.8,16.2,10.8v5H0v-5c15.5-.7,16.7-7.8,16.4-23.2,0,0,0-51.4,0-51.4.9-10-6.6-15.8-15.8-15.8v-5h34.3l28.8,75.4c2.9-8.9,27.7-67.4,27.9-75.4h32.8v5c-5.7.4-14.5,1.2-13.7,8.9,0,0,0,72.4,0,72.4-.7,7.4,8.2,8.8,13.8,9.1v5Zm70.6-1.3c-8.9,4.1-22.7,4.6-24.6-7.4h-.4c-10.6,14.4-40.4,15.5-40.6-6.9,0-7.1,3-13.2,9.2-16.7,6.4-4,24.8-8.5,31.5-12.2,0-4.8.5-11-2.1-15.5-3.3-7.7-15.5-8.4-21.3-3.1,1.2,7.1,3.7,15.6-7.1,15.9-4.7.2-6.8-4.1-6.9-8.1,0-5,4.1-8.8,8.3-11.5,12.1-7,34-8.1,40.5,6.7,1.3,3,1.9,6.9,1.9,11.6,0,13.4-.5,22-.4,35-.4,7.1,6.2,8.5,12,7.9v4.5Zm-24.7-37.4c-9.4,3.1-19,5.2-24.6,13.4-9.3,19.7,13.5,25.8,24.1,11l.4-24.5Zm30.8,33.1c2.9-1,3.9-3.3,3.9-6.4,0,0,0-43.1,0-43.1.2-6.2-5.3-9.6-11-9.5v-4.7l23.2-1.6,1,1v9.8h.4c4.3-4.3,9.1-9.1,15.3-10.8,7.4-2.4,18.8-1.2,23,5.1,8.2,8.7,3.8,41.7,4.9,53-.4,5.9,5.2,7.5,10.1,7.8v4.7h-34.1v-4.7c4.9,0,11.2-.8,10.7-7.2-1-8.3,3-41.3-3.5-47.4-7.6-8.7-22.3-2.1-26.7,6.5,0,0,0,40.1,0,40.1-.3,6,5.9,7.6,10.8,7.9v4.7h-30.3v-4.7m149.4,3.4l-22.8,1.6-1.1-1v-8.9h-.4c-8.1,10.6-27.7,16.8-37.4,5.3-8.1-8.4-3.9-39.7-4.8-51,.3-6.2-5.5-9.1-11-9.1v-4.7l23.3-1.7,1.1,1c1.2,8.4-3.2,54,3.4,59.9,7.6,8.4,21.2,1.7,25.8-6.4,0,0,0-39.5,0-39.5.1-7.4-6.9-8.8-13.2-8.6v-4.7l25.4-1.7,1.1,1v55.4c-.2,6,5.3,8.7,10.7,8.3v4.7Zm67.4,0c-8.9,4.1-22.7,4.6-24.6-7.4h-.4c-10.6,14.4-40.4,15.5-40.6-6.9,0-7.1,3-13.2,9.2-16.7,6.4-4,24.8-8.5,31.5-12.2,0-4.8.5-11-2.1-15.5-3.3-7.7-15.5-8.4-21.3-3.1,1.2,7.1,3.7,15.6-7.1,15.9-4.7.2-6.8-4.1-6.9-8.1,0-5,4.1-8.8,8.3-11.5,12.1-7,34-8.1,40.5,6.7,1.2,3,1.9,6.9,1.9,11.6,0,13.4-.5,22-.4,35-.4,7.1,6.2,8.5,12,7.9v4.5Zm-24.7-37.4c-9.4,3.1-19,5.2-24.6,13.4-9.3,19.7,13.5,25.8,24.1,11l.4-24.5Zm29.8,33.3c2.7-1.3,3.7-3.5,3.7-6.6,0,0,0-80.9,0-80.9.3-8.2-7.4-10.4-14.1-10.7V1.6L436.4,0l1,1.1v95.8c-.4,6,5.5,7.7,10.4,8.1v4.7h-29.2v-4.7m134.9,3.4l-24.4,1.6-1.1-1v-6.5h-.6c-22,22.7-51.8.3-50.4-27.8-.6-27,26.7-45.7,50.8-32.3v-24.3c.5-9.9-8.2-11.7-16.4-12V1.6L540.2,0l1.1,1.1v94.1c-.4,7,6.6,8.8,12.3,8.5v4.7Zm-25.6-12.2v-40.9c-.9-2.7-2.7-5.8-5-7.9-12.1-10.4-27.1.1-29.5,14.5-2.3,10.5-2.7,24,3.4,33.4,6.6,11.8,23.6,11.2,31.1.8Zm93.3-22.1c.7,26.1-22.5,45.1-47.5,35.2-33.4-13.9-24.8-73.1,13.8-71.4,20.3-.2,34.1,15.6,33.7,36.2Zm-14.7.1c.7-16.8-8.7-39.1-28.6-28.2-16,10.7-14.7,61,9.3,60.5,15.4-.9,19-16.8,19.2-32.2Zm-231.1,159.8l-33.8,2.3-1.6-1.5v-13.1h-.6c-12,15.7-41,24.9-55.4,7.8-12-12.5-5.7-58.9-7.2-75.6.4-9.3-8.1-13.5-16.4-13.4v-6.9l34.5-2.5,1.6,1.5c1.8,12.5-4.8,80,5,88.8,11.3,12.5,31.5,2.6,38.2-9.5,0,0,0-58.6,0-58.6.2-11-10.2-13.1-19.5-12.7v-6.9l37.7-2.5,1.6,1.5v82.1c-.3,8.9,7.9,12.9,15.9,12.4v6.9Zm81-48.8c6.2,5.6,8.9,11.9,8.9,20.8.8,32.6-44.7,41.3-66.1,23.4l-2.1,6.8h-7.9l-1-36h7.2c2.5,10.5,9.9,22,20,27.3,12.8,6.9,34.7,2.9,33.9-14.6.2-9.5-7-14.5-15.3-17.6-13.7-5.2-32.6-8.3-40.1-22.9-14.5-34.5,26.6-52.8,54.6-37.6l2.4-5.5h7.6l1.6,33.3h-7.2c-2.2-19-25.1-32.9-40.8-20.9-10.6,9.6-3.1,24.6,9.5,27.6,10.6,4.1,26.3,7.8,35,15.8Zm135.5,48.8l-33.8,2.3-1.6-1.5v-13.1h-.6c-12,15.7-41,24.9-55.4,7.8-12-12.5-5.7-58.9-7.2-75.6.4-9.3-8.1-13.5-16.4-13.4v-6.9l34.5-2.5,1.6,1.5c1.8,12.5-4.8,80,5,88.8,11.3,12.5,31.5,2.6,38.2-9.5,0,0,0-58.6,0-58.6.2-11-10.2-13.1-19.5-12.7v-6.9l37.7-2.5,1.6,1.5v82.1c-.3,8.9,7.9,12.9,15.9,12.4v6.9Zm110.8,0c-13.2,6.1-33.7,6.8-36.4-11h-.6c-15.8,21.3-59.9,22.9-60.2-10.3,0-10.6,4.4-19.5,13.6-24.8,9.5-6,36.7-12.6,46.7-18.1,1.9-19.3-5.4-38.8-28.8-31-10.1,2.1-3.3,10.3-3.8,17.2.2,8.9-15.1,13.6-20.2,6-8.9-14.4,8-26.9,21.3-30.4,9-3,20.2-2.2,28.5-.8,25.8,4.3,22.5,23,22.5,59.5s-.3,16.2-.3,25.4c-.7,10.5,9.2,12.6,17.7,11.8v6.7Zm-36.6-55.4c-13.9,4.5-28.2,7.7-36.4,19.9-10.9,20.2,7.1,36.4,26.2,24.9,3.8-2.4,7-5.3,9.6-8.6l.6-36.3Zm8.4-96c1.7,10.1-29.9,27.7-39.2,36.7l-4-3.4c6.3-9.3,10.7-15.9,13.2-19.7,4-5.3,8.8-16.1,14.3-19.9,5.6-4.1,15.7-1.5,15.6,6.2Zm117.8,63.1c.3,21.6-29.3,15.8-21.7-4.1-8.4.3-18,7.3-22.8,15.3,0,0,0,60.3,0,60.3-.8,10.9,12.1,11.1,19.8,11.8v6.9h-54.6v-6.9c7.2-.1,16-1.4,15.2-10.7,0,0,0-63.9,0-63.9.2-9-7.9-14.3-16.4-14.1v-6.9l34.4-2.3,1.5,1.5v14.6h.5c9.8-15.9,42.6-28.1,44-1.5Zm59,90.2h-50v-6.9c7.2-.1,16-1.4,15.2-10.7,0,0,0-63.9,0-63.9.4-9.9-10.1-13.8-18.5-14.1v-6.9l36.5-2.3,1.5,1.5s0,84.4,0,84.4c-.6,8.8,8.1,11.4,15.2,12v6.9Zm-13.1-145.6c0,18.8-26.1,19.9-26.9.9-.3-18.1,26.6-19.1,26.9-.9Zm126.9,92.8c.9,29.3-20.7,57.5-51.6,56-47.4.9-64.5-63.2-35.5-94.2,31.5-33.4,90-9.9,87.1,38.2Zm-21.7.2c1-24.9-12.8-58-42.3-41.9-23.7,15.8-21.8,90.4,13.8,89.7,22.9-1.3,28.2-24.9,28.5-47.8Zm-349.2,126.3c-3.5,0-6.5-1.9-8-5.2v13.3h-3.1v-31.8h2.9v5c5.2-10.3,19.1-5.1,18.5,6.6,0,7.2-4,12.1-10.2,12.1Zm-.5-21.5c-10-.4-10.1,19.1,0,18.8,10.1.5,10.2-19.2,0-18.8Zm14,9.4c0-16,22.2-15.9,22.1,0,0,16.1-22.2,16.1-22.1,0Zm19,0c.2-12.4-16-12.4-15.9,0-.2,12.5,16.1,12.5,15.9,0Zm11.2,11.7h-3.1v-23.3h2.9v5.3c1.6-3.4,5-5.7,8.9-5.7v3.2c-4.9-.2-8.7,2.9-8.7,8v12.5Zm21.9,0v-31.7h11.3c13-.8,15.1,16.6,2.8,18.8l9,12.9h-4l-8.5-12.6h-7.2v12.6h-3.3Zm3.3-15.3c6-.2,15.6,1.7,15.6-6.8,0-8.5-9.6-6.6-15.6-6.8v13.6Zm21.7,3.7c0-16,22.2-15.9,22.1,0,0,16.1-22.2,16.1-22.1,0Zm19,0c.2-12.4-16-12.4-15.9,0-.2,12.5,16.1,12.5,15.9,0Zm16.7-12.1c3.5,0,6.5,2,8,5.3v-13.3h3.1v31.7h-2.9v-4.9c-5.4,10.2-19.1,4.9-18.5-6.8,0-7.2,4-12.1,10.3-12.1Zm.4,21.5c10.1.3,10.2-19.2,0-18.8-10.1-.5-10.1,19.2,0,18.8Zm20.5,2.3h-3.1v-23.3h2.9v5.3c1.6-3.4,5-5.7,8.9-5.7v3.2c-4.9-.2-8.7,2.9-8.7,8v12.5Zm14-26.3c-3.2,0-3.3-4.7,0-4.6,3.4,0,3.3,4.7,0,4.6Zm-1.5,26.3v-23.3h3.1v23.3h-3.1Zm8.7.7h3c.3,3.8,2.7,5.8,6.9,5.8s7-2.4,7-7v-4.9c-1.4,3.3-4.2,5.2-7.7,5.2-5.9,0-9.8-4.7-9.8-11.8-.6-11.5,12.8-16.5,17.7-6.4v-4.9h2.9v22.8c0,6-3.7,9.5-10,9.5s-9.6-3.1-9.9-8.3Zm9.6-3.5c9.9.3,9.6-18.6,0-18.3-9.6-.5-9.6,18.7,0,18.3Zm15.3-8.8c0-16,22.2-15.9,22.1,0,0,16.1-22.2,16.1-22.1,0Zm19,0c.2-12.4-16-12.4-15.9,0-.2,12.5,16.1,12.5,15.9,0Zm15.8-4.2c-.2-19.5,26.4-22.4,31.3-5h-3.8c-4-13.5-24.7-10.5-24.1,5-.6,16.3,23,18.9,24.8,2.7h-12.5v-2.7h15.9c.3,22.4-31.6,21.6-31.7,0Zm39.9,15.9h-3.1v-31.7h3.1v12.7c3.8-7.6,15.9-5.8,15.5,3.9,0,0,0,15.1,0,15.1h-3.1v-14.1c0-4.5-2-7-5.8-7s-6.5,3.1-6.5,7.5v13.6Zm20.2-11.8c0-16.2,22.5-15.7,21.1.9h-18c.3,5.5,3.2,8.9,7.7,8.9s6.6-2.2,7.3-5.9h3c-3,13-21.8,10.2-21.2-4Zm3.1-1.2h14.8c-.2-11.3-14.3-10.9-14.8,0Zm31.2-10.7c3.5,0,6.5,2,8,5.3v-13.3h3.1v31.7h-2.9v-4.9c-5.4,10.2-19.1,4.9-18.5-6.8,0-7.2,4-12.1,10.3-12.1Zm.4,21.5c10.1.3,10.2-19.2,0-18.8-10.1-.5-10.1,19.2,0,18.8Zm18.9-24.1c-3.2,0-3.3-4.7,0-4.6,3.4,0,3.3,4.7,0,4.6Zm-1.5,26.3v-23.3h3.1v23.3h-3.1Zm12.9,0h-3.1v-23.3h2.9v4.4c3.8-7.7,16.2-6,15.7,3.8,0,0,0,15.1,0,15.1h-3.1v-14.1c0-4.5-2-7-5.8-7s-6.5,3.1-6.5,7.5v13.6ZM96,140.1v161.9c0,4,3.1,7.1,7.1,7.1h139.8c4,0,7.1-3.1,7.1-7.1v-161.9c0-4-3.1-7.1-7.1-7.1H103.1c-4,0-7.1,3.1-7.1,7.1Z" stroke-width="0"/><path d="m107.3,149.2c0-3.2,1.7-4.9,4.9-4.9h121.4c3.2,0,4.9,1.7,4.9,4.9v143.5c0,3.2-1.7,4.9-4.9,4.9h-121.4c-3.2,0-4.9-1.7-4.9-4.9v-143.5Zm104.9,38h-78.5v-11h78.5v11Zm-78.5,39.2h78.5v-11h-78.5v11Zm78.5,39.2h-78.5v-11h78.5v11Z" fill="#fff" fill-rule="evenodd" stroke-width="0"/></svg>