<svg xmlns="http://www.w3.org/2000/svg" viewBox="0 0 24 24"><path fill="#129aed" fill-rule="evenodd" d="M9.6 3.2c-.25.2-.37.31-.5.4-.3.2-.64.34-.99.4-.15.04-.31.05-.63.08-.8.06-1.2.1-1.54.2-.77.28-1.38.9-1.65 1.66-.12.34-.15.74-.21 1.54-.03.32-.04.48-.07.63-.07.35-.21.69-.41.99-.09.13-.2.25-.4.5a6 6 0 0 0-.93 1.23c-.36.74-.36 1.6 0 2.34.15.32.4.63.93 1.24.2.24.31.36.4.5.2.3.34.63.4.98.04.15.05.31.08.63.06.8.1 1.2.2 1.54.28.77.9 1.38 1.66 1.65.34.12.74.15 1.54.21.32.03.48.04.63.07.35.07.69.21.99.41.13.09.25.2.5.4a6 6 0 0 0 1.23.93c.74.36 1.6.36 2.34 0 .32-.15.63-.4 1.24-.93.24-.2.36-.31.5-.4.3-.2.63-.34.98-.4.15-.04.31-.05.63-.08.8-.06 1.2-.1 1.54-.2a2.71 2.71 0 0 0 1.65-1.66c.12-.34.15-.74.21-1.54.03-.32.04-.48.07-.63.07-.35.21-.69.41-.99.09-.13.2-.25.4-.5a6 6 0 0 0 .93-1.23c.36-.74.36-1.6 0-2.34a6.49 6.49 0 0 0-.93-1.24c-.2-.24-.31-.36-.4-.5-.2-.3-.34-.63-.4-.98a5.72 5.72 0 0 1-.08-.63c-.06-.8-.1-1.2-.2-1.54a2.71 2.71 0 0 0-1.66-1.65 6.34 6.34 0 0 0-1.54-.21c-.32-.03-.48-.04-.63-.07a2.77 2.77 0 0 1-.99-.41c-.13-.09-.25-.2-.5-.4a6 6 0 0 0-1.23-.93 2.71 2.71 0 0 0-2.34 0c-.32.15-.63.4-1.24.93zm6.77 6.66a.81.81 0 0 0-1.15-1.15l-4.85 4.85-1.6-1.6a.81.81 0 0 0-1.14 1.16l2.17 2.17a.8.8 0 0 0 1.15 0z" clip-rule="evenodd"/></svg>